<?xml version="1.0" encoding="utf-8"?>
<!-- Generator: Adobe Illustrator 27.0.0, SVG Export Plug-In . SVG Version: 6.00 Build 0)  -->
<svg version="1.1" id="Слой_1" xmlns="http://www.w3.org/2000/svg" xmlns:xlink="http://www.w3.org/1999/xlink" x="0px" y="0px"
	 viewBox="0 0 42 42" style="enable-background:new 0 0 42 42;" xml:space="preserve">
<style type="text/css">
	.st0{fill:none;stroke:#000023;stroke-width:5.0149;stroke-linecap:round;}
	.st1{fill:#000023;}
	.st2{fill:none;stroke:#000023;stroke-width:5.0149;}
</style>
<path class="st0" d="M21,21.4v-5.5C21,9.9,17,5,12.1,5l0,0C7.1,5,3.1,9.9,3.1,15.9v16.7"/>
<g>
	<path class="st1" d="M23.5,22.7c0.1,2.1,0,4.3,0.1,6.4c1,8.3,10.5,9.9,12.9,1.5c0.5-1.6,0.3-4.3,0.4-6c0,0,0-13.4,0-13.4
		c0.1-3.3,4.9-3.3,5,0c0,0,0,13.4,0,13.4l0,3.4c0,4.1-1.6,8.1-4.9,10.8c-7.7,6.3-17.7,0-18.6-9.1c-0.2-2.3-0.1-4.7-0.1-7
		C18.7,19.5,23.3,19.5,23.5,22.7L23.5,22.7z"/>
</g>
<g>
	<path class="st1" d="M2.5,18.8c6.1,2.2,12.2,1.8,18.5,2c6.2-0.1,12.5,0,18.5-2c0,0,0,5,0,5c-6-2-12.3-1.9-18.5-2
		c-6.3,0.3-12.4-0.2-18.5,2C2.5,23.8,2.5,18.8,2.5,18.8L2.5,18.8z"/>
</g>
<path class="st2" d="M12.7,2.5h16.7c5.6,0,10.2,4.5,10.2,10.2v16.7c0,5.6-4.5,10.2-10.2,10.2H12.7c-5.6,0-10.2-4.5-10.2-10.2V12.7
	C2.5,7.1,7.1,2.5,12.7,2.5z"/>
<path class="st2" d="M36,5"/>
</svg>
